<?xml version="1.0" standalone="no"?>
<!DOCTYPE svg PUBLIC "-//W3C//DTD SVG 20010904//EN"
 "http://www.w3.org/TR/2001/REC-SVG-20010904/DTD/svg10.dtd">
<svg version="1.0" xmlns="http://www.w3.org/2000/svg"
 width="128.000000pt" height="128.000000pt" viewBox="0 0 128.000000 128.000000"
 preserveAspectRatio="xMidYMid meet">
<metadata>
Created by potrace 1.14, written by Peter Selinger 2001-2017
</metadata>
<g transform="translate(0.000000,128.000000) scale(0.100000,-0.100000)"
fill="#000000" stroke="none">
<path d="M596 1049 c-127 -54 -233 -104 -237 -110 -3 -6 -6 -147 -5 -312 2
-326 3 -333 58 -384 38 -36 73 -43 211 -43 l133 0 -1 -32 c-1 -49 4 -51 33
-17 l26 32 28 -34 28 -33 0 41 c0 40 2 42 33 45 l32 3 1 363 1 362 -49 0 -48
0 0 110 c0 61 -3 110 -7 109 -5 0 -111 -45 -237 -100z m24 -100 c0 -10 -130
-74 -177 -85 -19 -5 -24 -3 -21 6 4 13 160 87 186 89 6 1 12 -4 12 -10z m286
-287 c1 -159 -3 -235 -10 -240 -9 -5 -376 -11 -376 -6 0 1 38 18 85 38 46 20
118 52 160 71 l75 35 0 171 0 170 33 -3 32 -3 1 -233z m-286 219 c0 -7 -178
-91 -192 -91 -3 0 -5 6 -5 14 0 7 37 29 81 49 81 36 116 44 116 28z m200 -284
c0 -8 -73 -45 -167 -86 -178 -78 -223 -110 -223 -159 0 -15 11 -40 24 -57 l24
-30 139 -5 c99 -4 139 -9 141 -17 3 -18 -253 -18 -288 0 -42 21 -72 76 -66
122 3 22 5 40 5 41 14 26 70 59 202 118 216 96 209 94 209 73z m85 -227 c0
-13 -32 -15 -217 -16 -173 -1 -218 1 -218 12 0 18 11 19 234 19 172 0 201 -2
201 -15z m-249 -49 c82 -1 101 -4 101 -16 0 -12 -20 -15 -119 -15 -109 0 -158
9 -158 28 0 4 17 6 37 5 21 -1 83 -2 139 -2z m251 -16 c0 -8 -9 -15 -19 -15
-10 0 -18 7 -18 15 0 8 8 15 18 15 10 0 19 -7 19 -15z m3 -60 c0 -8 -9 -15
-20 -15 -11 0 -20 7 -20 15 0 8 9 15 20 15 11 0 20 -7 20 -15z"/>
</g>
</svg>
