<svg xmlns="http://www.w3.org/2000/svg" version="1.1" xmlns:xlink="http://www.w3.org/1999/xlink" xmlns:svgjs="http://svgjs.dev/svgjs" width="2000" height="671" viewBox="0 0 2000 671"><g transform="matrix(1,0,0,1,-1.2121212121212466,-0.6192654332965617)"><svg viewBox="0 0 396 133" data-background-color="#ffffff" preserveAspectRatio="xMidYMid meet" height="671" width="2000" xmlns="http://www.w3.org/2000/svg" xmlns:xlink="http://www.w3.org/1999/xlink"><g id="tight-bounds" transform="matrix(1,0,0,1,0.2400000000000091,0.12274560749395391)"><svg viewBox="0 0 395.52 132.7545087850121" height="132.7545087850121" width="395.52"><g><svg viewBox="0 0 524.6689110713328 176.10275982008994" height="132.7545087850121" width="395.52"><g><rect width="4.866303690666027" height="176.10275982008994" x="111.54359248363527" y="0" fill="#f9cc0b" opacity="1" stroke-width="0" stroke="transparent" fill-opacity="1" class="rect-i$-0" data-fill-palette-color="primary" rx="1%" id="i$-0" data-palette-color="#f9cc0b"></rect></g><g transform="matrix(1,0,0,1,129.14891107133278,0.43806656671662836)"><svg viewBox="0 0 395.52 175.2266266866567" height="175.2266266866567" width="395.52"><g id="textblocktransform"><svg viewBox="0 0 395.52 175.2266266866567" height="175.2266266866567" width="395.52" id="textblock"><g><svg viewBox="0 0 395.52 175.2266266866567" height="175.2266266866567" width="395.52"><g transform="matrix(1,0,0,1,0,0)"><svg width="395.52" viewBox="2.3999999999999995 -35.699999999999996 268.25 115.19999999999999" height="175.2266266866567" data-palette-color="#f9cc0b"><svg></svg><svg></svg><svg></svg><g class="undefined-text-0" data-fill-palette-color="primary" id="text-0"><path d="M26.75 0h-22.9v-35h22.4v6.2h-15.85v7.45h12.3v6.2h-12.3v8.95h16.35zM45.35 0h-13.1v-35h13.1c3.333 0 6.3 0.697 8.9 2.09 2.6 1.387 4.643 3.387 6.13 6 1.48 2.607 2.22 5.743 2.22 9.41v0c0 3.667-0.74 6.803-2.22 9.41-1.487 2.613-3.53 4.613-6.13 6-2.6 1.393-5.567 2.09-8.9 2.09zM38.65-29.3v23.6h6.7c2.267 0 4.16-0.477 5.68-1.43 1.513-0.947 2.653-2.303 3.42-4.07 0.767-1.767 1.15-3.867 1.15-6.3v0c0-2.433-0.383-4.533-1.15-6.3-0.767-1.767-1.907-3.127-3.42-4.08-1.52-0.947-3.413-1.42-5.68-1.42v0zM82.35 0.7v0c-3.28 0-5.993-0.65-8.14-1.95-2.14-1.3-3.733-3.127-4.78-5.48-1.053-2.347-1.58-5.103-1.58-8.27v0-20h6.4v18.35c0 1.667 0.11 3.187 0.33 4.56 0.213 1.373 0.607 2.557 1.18 3.55 0.58 0.993 1.403 1.757 2.47 2.29 1.067 0.533 2.44 0.8 4.12 0.8v0c1.687 0 3.063-0.267 4.13-0.8 1.067-0.533 1.887-1.297 2.46-2.29 0.573-0.993 0.97-2.177 1.19-3.55 0.213-1.373 0.32-2.893 0.32-4.56v0-18.35h6.4v20c0 3.167-0.523 5.923-1.57 8.27-1.053 2.353-2.65 4.18-4.79 5.48-2.14 1.3-4.853 1.95-8.14 1.95zM120 0.7v0c-3.547 0-6.67-0.753-9.37-2.26-2.7-1.513-4.807-3.63-6.32-6.35-1.507-2.727-2.26-5.923-2.26-9.59v0c0-3.667 0.78-6.863 2.34-9.59 1.56-2.727 3.707-4.843 6.44-6.35 2.733-1.507 5.857-2.26 9.37-2.26v0c1.853 0 3.547 0.197 5.08 0.59 1.533 0.393 2.857 0.88 3.97 1.46v0l-0.7 6.1c-1.267-0.587-2.57-1.067-3.91-1.44-1.34-0.373-2.837-0.56-4.49-0.56v0c-2.447 0-4.493 0.517-6.14 1.55-1.64 1.033-2.877 2.457-3.71 4.27-0.833 1.82-1.25 3.897-1.25 6.23v0c0 2.333 0.41 4.407 1.23 6.22 0.813 1.82 2.033 3.247 3.66 4.28 1.627 1.033 3.647 1.55 6.06 1.55v0c1.687 0 3.197-0.183 4.53-0.55 1.333-0.367 2.673-0.85 4.02-1.45v0l0.7 6.1c-1.313 0.613-2.76 1.11-4.34 1.49-1.573 0.373-3.21 0.56-4.91 0.56zM153.7-13.9v5.6h-14.65v-5.6zM155.65 0l-10.1-28.75h1.65l-10.1 28.75h-6.2l12.45-35h6.05l12.45 35zM176.4 0h-6.4v-28.8h-9.9v-6.2h26.2v6.2h-9.9zM197.3 0h-6.4v-35h6.4zM220.15 0.7v0c-3.333 0-6.3-0.753-8.9-2.26-2.6-1.513-4.64-3.63-6.12-6.35-1.487-2.727-2.23-5.923-2.23-9.59v0c0-3.667 0.743-6.863 2.23-9.59 1.48-2.727 3.52-4.843 6.12-6.35 2.6-1.507 5.567-2.26 8.9-2.26v0c3.333 0 6.3 0.753 8.9 2.26 2.6 1.507 4.643 3.623 6.13 6.35 1.48 2.727 2.22 5.923 2.22 9.59v0c0 3.667-0.74 6.863-2.22 9.59-1.487 2.72-3.53 4.837-6.13 6.35-2.6 1.507-5.567 2.26-8.9 2.26zM220.15-5.5v0c2.333 0 4.283-0.517 5.85-1.55 1.567-1.033 2.743-2.453 3.53-4.26 0.78-1.813 1.17-3.877 1.17-6.19v0c0-2.32-0.39-4.383-1.17-6.19-0.787-1.807-1.963-3.227-3.53-4.26-1.567-1.033-3.517-1.55-5.85-1.55v0c-2.333 0-4.283 0.517-5.85 1.55-1.567 1.033-2.74 2.453-3.52 4.26-0.787 1.807-1.18 3.87-1.18 6.19v0c0 2.313 0.393 4.377 1.18 6.19 0.78 1.807 1.953 3.227 3.52 4.26 1.567 1.033 3.517 1.55 5.85 1.55zM249.4 0h-6.4v-35h6.3l14.95 22.6v-22.6h6.4v35h-5.25l-16-24z" fill="#f9cc0b" fill-rule="nonzero" stroke="none" stroke-width="1" stroke-linecap="butt" stroke-linejoin="miter" stroke-miterlimit="10" stroke-dasharray="" stroke-dashoffset="0" font-family="none" font-weight="none" font-size="none" text-anchor="none" style="mix-blend-mode: normal" data-fill-palette-color="primary" opacity="1"></path><path transform="translate(0,39.4)" d="M10.25 0h-6.4v-35h6.4zM24.35 0h-6.4v-35h6.3l14.95 22.6v-22.6h6.4v35h-5.25l-16-24z" fill="#f9cc0b" fill-rule="nonzero" stroke="none" stroke-width="1" stroke-linecap="butt" stroke-linejoin="miter" stroke-miterlimit="10" stroke-dasharray="" stroke-dashoffset="0" font-family="none" font-weight="none" font-size="none" text-anchor="none" style="mix-blend-mode: normal" data-fill-palette-color="primary" opacity="1"></path><path transform="translate(0,78.8)" d="M14 0.7v0c-1.413 0-2.87-0.137-4.37-0.41-1.5-0.28-2.893-0.613-4.18-1-1.28-0.393-2.297-0.773-3.05-1.14v0l0.75-6.8c1.167 0.567 2.383 1.09 3.65 1.57 1.267 0.487 2.567 0.88 3.9 1.18 1.333 0.3 2.683 0.45 4.05 0.45v0c1.7 0 3.067-0.333 4.1-1 1.033-0.667 1.55-1.683 1.55-3.05v0c0-1.053-0.29-1.9-0.87-2.54-0.587-0.64-1.48-1.213-2.68-1.72-1.2-0.513-2.733-1.093-4.6-1.74v0c-1.867-0.653-3.54-1.39-5.02-2.21-1.487-0.827-2.663-1.873-3.53-3.14-0.867-1.267-1.3-2.883-1.3-4.85v0c0-1.933 0.477-3.653 1.43-5.16 0.947-1.513 2.367-2.697 4.26-3.55 1.893-0.86 4.247-1.29 7.06-1.29v0c2.133 0 4.167 0.237 6.1 0.71 1.933 0.48 3.583 0.993 4.95 1.54v0l-0.65 6.55c-1.967-0.887-3.813-1.557-5.54-2.01-1.72-0.46-3.473-0.69-5.26-0.69v0c-1.867 0-3.307 0.307-4.32 0.92-1.02 0.62-1.53 1.547-1.53 2.78v0c0 0.98 0.283 1.77 0.85 2.37 0.567 0.6 1.377 1.113 2.43 1.54 1.047 0.427 2.303 0.873 3.77 1.34v0c2.533 0.8 4.663 1.68 6.39 2.64 1.727 0.96 3.027 2.117 3.9 3.47 0.873 1.36 1.31 3.04 1.31 5.04v0c0 1-0.157 2.087-0.47 3.26-0.32 1.173-0.947 2.287-1.88 3.34-0.933 1.047-2.297 1.91-4.09 2.59-1.787 0.673-4.157 1.01-7.11 1.01zM53.65 0h-20.8v-35h6.4v29.3h14.4zM72.35 0.7v0c-3.333 0-6.3-0.753-8.9-2.26-2.6-1.513-4.64-3.63-6.12-6.35-1.487-2.727-2.23-5.923-2.23-9.59v0c0-3.667 0.743-6.863 2.23-9.59 1.48-2.727 3.52-4.843 6.12-6.35 2.6-1.507 5.567-2.26 8.9-2.26v0c3.333 0 6.3 0.753 8.9 2.26 2.6 1.507 4.643 3.623 6.13 6.35 1.48 2.727 2.22 5.923 2.22 9.59v0c0 3.667-0.74 6.863-2.22 9.59-1.487 2.72-3.53 4.837-6.13 6.35-2.6 1.507-5.567 2.26-8.9 2.26zM72.35-5.5v0c2.333 0 4.283-0.517 5.85-1.55 1.567-1.033 2.74-2.453 3.52-4.26 0.787-1.813 1.18-3.877 1.18-6.19v0c0-2.32-0.393-4.383-1.18-6.19-0.78-1.807-1.953-3.227-3.52-4.26-1.567-1.033-3.517-1.55-5.85-1.55v0c-2.333 0-4.283 0.517-5.85 1.55-1.567 1.033-2.74 2.453-3.52 4.26-0.787 1.807-1.18 3.87-1.18 6.19v0c0 2.313 0.393 4.377 1.18 6.19 0.78 1.807 1.953 3.227 3.52 4.26 1.567 1.033 3.517 1.55 5.85 1.55zM109.35 0h-6.05l-12.45-35h6.45l9.65 27.6h-1.3l9.7-27.6h6.45zM142.55-13.9v5.6h-14.65v-5.6zM144.5 0l-10.1-28.75h1.65l-10.1 28.75h-6.2l12.45-35h6.05l12.45 35zM182.05 0h-7.5l-12.95-18.5 12.95-16.5h7.5l-13.05 16.5zM161.1 0h-6.4v-35h6.4zM192.45 0h-6.4v-35h6.4zM219.25-13.9v5.6h-14.65v-5.6zM221.2 0l-10.1-28.75h1.65l-10.1 28.75h-6.2l12.45-35h6.05l12.45 35z" fill="#f9cc0b" fill-rule="nonzero" stroke="none" stroke-width="1" stroke-linecap="butt" stroke-linejoin="miter" stroke-miterlimit="10" stroke-dasharray="" stroke-dashoffset="0" font-family="none" font-weight="none" font-size="none" text-anchor="none" style="mix-blend-mode: normal" data-fill-palette-color="primary" opacity="1"></path></g></svg></g></svg></g></svg></g></svg></g><g transform="matrix(1,0,0,1,0,0.43806656671662836)"><svg viewBox="0 0 98.80457758660378 175.2266266866567" height="175.2266266866567" width="98.80457758660378"><g><svg xmlns="http://www.w3.org/2000/svg" xmlns:xlink="http://www.w3.org/1999/xlink" version="1.1" x="0" y="0" viewBox="24.704 5.137 50.59300000000001 89.725" enable-background="new 0 0 100 100" xml:space="preserve" height="175.2266266866567" width="98.80457758660378" class="icon-icon-0" data-fill-palette-color="accent" id="icon-0"><path fill="#181059" d="M75.293 73.921l0.004-49.42h-8.302V5.137l-39.7 16.961c-1.749 0.906-2.59 1.979-2.59 2.982 0 0-0.001 46.49-0.001 46.503 0 9.225 5.628 16.183 14.325 16.183H59.71v7.096l5.018-5.778 4.788 5.778v-7.096h5.781L75.293 73.921zM30.813 28.53l16.693-7.156v2.666l-16.693 7.156V28.53zM30.813 34.158l16.693-7.156v2.665l-16.693 7.156V34.158zM39.458 85.139c-5.87 0-10.645-4.775-10.645-10.646 0-4.31 2.572-8.168 6.55-9.826 1.082-0.452 29.591-12.969 29.842-13.076l0.002 2.9c0 0-27.721 12.177-28.819 12.635-2.982 1.244-4.91 4.135-4.91 7.367 0 4.399 3.58 7.979 7.979 7.979H59.71v2.667H39.458zM35.211 77.139H59.71v2.664h-0.589H39.865C37.881 79.803 36.151 78.73 35.211 77.139zM72.63 85.139h-3.114v-2.667h3.114V85.139zM72.63 79.803h-3.114v-2.664h3.114V79.803zM72.63 74.426l-38.169 0.002c0-0.011-0.001-0.021-0.001-0.029 0-0.961 0.263-1.856 0.702-2.638H72.63V74.426zM72.63 69.105H38.524l26.989-11.852c0.903-0.389 1.482-1.247 1.482-2.197V27.161h5.635V69.105z" data-fill-palette-color="accent"></path></svg></g></svg></g></svg></g><defs></defs></svg><rect width="395.52" height="132.7545087850121" fill="none" stroke="none" visibility="hidden"></rect></g></svg></g></svg>