<svg xmlns="http://www.w3.org/2000/svg" version="1.1" xmlns:xlink="http://www.w3.org/1999/xlink" xmlns:svgjs="http://svgjs.dev/svgjs" width="2000" height="626" viewBox="0 0 2000 626"><g transform="matrix(1,0,0,1,-1.2121212121212466,-0.9975896316803414)"><svg viewBox="0 0 396 124" data-background-color="#ffffff" preserveAspectRatio="xMidYMid meet" height="626" width="2000" xmlns="http://www.w3.org/2000/svg" xmlns:xlink="http://www.w3.org/1999/xlink"><g id="tight-bounds" transform="matrix(1,0,0,1,0.2400000000000091,0.1976056139430682)"><svg viewBox="0 0 395.52 123.60478877211386" height="123.60478877211386" width="395.52"><g><svg viewBox="0 0 513.1022153958438 160.3506547140649" height="123.60478877211386" width="395.52"><g><rect width="4.428688731669367" height="160.3506547140649" x="101.56010066504" y="0" fill="#ffc700" opacity="1" stroke-width="0" stroke="transparent" fill-opacity="1" class="rect-o-0" data-fill-palette-color="primary" rx="1%" id="o-0" data-palette-color="#ffc700"></rect></g><g transform="matrix(1,0,0,1,117.58221539584383,0.3988822256568625)"><svg viewBox="0 0 395.52 159.55289026275116" height="159.55289026275116" width="395.52"><g id="textblocktransform"><svg viewBox="0 0 395.52 159.55289026275116" height="159.55289026275116" width="395.52" id="textblock"><g><svg viewBox="0 0 395.52 159.55289026275116" height="159.55289026275116" width="395.52"><g transform="matrix(1,0,0,1,0,0)"><svg width="395.52" viewBox="1.8999996185302734 -35.70000076293945 292.45001220703125 114.44999694824219" height="159.55289026275116" data-palette-color="#ffc700"><svg></svg><svg></svg><svg></svg><g class="undefined-text-0" data-fill-palette-color="primary" id="text-0"><path xmlns="http://www.w3.org/2000/svg" d="M28.25 0h-25.05v-35.25h25.05v7.1h-16.1v6.7h15.1v7.05h-15.1v7.3h16.1zM33.05 0v-35.25h14.35c3.9 0 7.26 0.7 10.08 2.1 2.813 1.4 4.97 3.423 6.47 6.07 1.5 2.653 2.25 5.797 2.25 9.43v0c0 3.667-0.74 6.823-2.22 9.47-1.487 2.653-3.637 4.68-6.45 6.08-2.82 1.4-6.197 2.1-10.13 2.1v0zM42.25-7.4h4.5c3.467 0 6.05-0.85 7.75-2.55 1.7-1.7 2.55-4.267 2.55-7.7v0c0-3.433-0.85-5.993-2.55-7.68-1.7-1.68-4.283-2.52-7.75-2.52v0h-4.5zM87.1 0.45c-5.1 0-8.977-1.3-11.63-3.9-2.647-2.6-3.97-6.4-3.97-11.4v0-20.4h9v20.75c0 2.533 0.567 4.483 1.7 5.85 1.133 1.367 2.767 2.05 4.9 2.05v0c2.133 0 3.767-0.683 4.9-2.05 1.133-1.367 1.7-3.317 1.7-5.85v0-20.75h9.05v20.4c0 4.967-1.343 8.757-4.03 11.37-2.68 2.62-6.553 3.93-11.62 3.93zM126.05 0.45c-3.667 0-6.86-0.75-9.58-2.25-2.713-1.5-4.797-3.617-6.25-6.35-1.447-2.733-2.17-5.9-2.17-9.5v0c0-3.6 0.723-6.76 2.17-9.48 1.453-2.713 3.537-4.82 6.25-6.32 2.72-1.5 5.913-2.25 9.58-2.25v0c2.3 0 4.523 0.35 6.67 1.05 2.153 0.7 3.913 1.633 5.28 2.8v0l-2.85 6.5c-2.9-2.033-5.867-3.05-8.9-3.05v0c-2.867 0-5.06 0.9-6.58 2.7-1.513 1.8-2.27 4.483-2.27 8.05v0c0 3.567 0.757 6.257 2.27 8.07 1.52 1.82 3.713 2.73 6.58 2.73v0c3.033 0 6-1.017 8.9-3.05v0l2.85 6.5c-1.367 1.167-3.127 2.1-5.28 2.8-2.147 0.7-4.37 1.05-6.67 1.05zM178.4 0h-9.1l-3.15-7.3h-15.6l-3.15 7.3h-9.25l16.45-35.25h7.3zM158.35-25.5l-4.85 11.3h9.7zM193.15 0h-9.3v-27.8h-10.55v-7.45h30.4v7.45h-10.55zM216.7 0h-9.2v-35.25h9.2zM239.85 0.45c-3.6 0-6.727-0.743-9.38-2.23-2.647-1.48-4.687-3.58-6.12-6.3-1.433-2.713-2.15-5.903-2.15-9.57v0c0-3.667 0.717-6.86 2.15-9.58 1.433-2.713 3.473-4.803 6.12-6.27 2.653-1.467 5.78-2.2 9.38-2.2v0c3.6 0 6.727 0.733 9.38 2.2 2.647 1.467 4.68 3.557 6.1 6.27 1.413 2.72 2.12 5.913 2.12 9.58v0c0 3.667-0.717 6.857-2.15 9.57-1.433 2.72-3.473 4.82-6.12 6.3-2.653 1.487-5.763 2.23-9.33 2.23zM239.85-6.6c2.667 0 4.75-0.943 6.25-2.83 1.5-1.88 2.25-4.62 2.25-8.22v0c0-3.6-0.757-6.333-2.27-8.2-1.52-1.867-3.597-2.8-6.23-2.8v0c-2.667 0-4.75 0.923-6.25 2.77-1.5 1.853-2.25 4.597-2.25 8.23v0c0 3.633 0.75 6.383 2.25 8.25 1.5 1.867 3.583 2.8 6.25 2.8zM285.75-15.1v-20.15h8.6v35.25h-6.8l-16.1-20.15v20.15h-8.55v-35.25h6.7z" fill="#ffc700" fill-rule="nonzero" stroke="none" stroke-width="1" stroke-linecap="butt" stroke-linejoin="miter" stroke-miterlimit="10" stroke-dasharray="" stroke-dashoffset="0" font-family="none" font-weight="none" font-size="none" text-anchor="none" style="mix-blend-mode: normal" data-fill-palette-color="primary" opacity="1"></path><path xmlns="http://www.w3.org/2000/svg" d="M12.4 39.15h-9.2v-35.25h9.2zM41.65 24.05v-20.15h8.6v35.25h-6.8l-16.1-20.15v20.15h-8.55v-35.25h6.7z" fill="#ffc700" fill-rule="nonzero" stroke="none" stroke-width="1" stroke-linecap="butt" stroke-linejoin="miter" stroke-miterlimit="10" stroke-dasharray="" stroke-dashoffset="0" font-family="none" font-weight="none" font-size="none" text-anchor="none" style="mix-blend-mode: normal" data-fill-palette-color="primary" opacity="1"></path><path xmlns="http://www.w3.org/2000/svg" d="M15.95 78.75c-2.633 0-5.233-0.35-7.8-1.05-2.567-0.7-4.65-1.633-6.25-2.8v0l2.85-6.5c1.7 1.067 3.517 1.883 5.45 2.45 1.933 0.567 3.883 0.85 5.85 0.85v0c2 0 3.527-0.277 4.58-0.83 1.047-0.547 1.57-1.32 1.57-2.32v0c0-0.9-0.473-1.633-1.42-2.2-0.953-0.567-2.763-1.133-5.43-1.7v0c-3.3-0.7-5.883-1.533-7.75-2.5-1.867-0.967-3.173-2.1-3.92-3.4-0.753-1.3-1.13-2.9-1.13-4.8v0c0-2.167 0.61-4.11 1.83-5.83 1.213-1.713 2.93-3.063 5.15-4.05 2.213-0.98 4.753-1.47 7.62-1.47v0c2.533 0 4.993 0.357 7.38 1.07 2.38 0.72 4.237 1.647 5.57 2.78v0l-2.8 6.5c-3.2-2.2-6.567-3.3-10.1-3.3v0c-1.7 0-3.067 0.323-4.1 0.97-1.033 0.653-1.55 1.513-1.55 2.58v0c0 0.633 0.183 1.15 0.55 1.55 0.367 0.4 1.05 0.79 2.05 1.17 1 0.387 2.483 0.78 4.45 1.18v0c3.2 0.7 5.717 1.54 7.55 2.52 1.833 0.987 3.133 2.13 3.9 3.43 0.767 1.3 1.15 2.85 1.15 4.65v0c0 3.467-1.333 6.173-4 8.12-2.667 1.953-6.417 2.93-11.25 2.93zM60.6 78.3h-24.2v-35.25h9.2v27.8h15zM79.7 78.75c-3.6 0-6.723-0.743-9.37-2.23-2.653-1.48-4.697-3.58-6.13-6.3-1.433-2.713-2.15-5.903-2.15-9.57v0c0-3.667 0.717-6.86 2.15-9.58 1.433-2.713 3.477-4.803 6.13-6.27 2.647-1.467 5.77-2.2 9.37-2.2v0c3.6 0 6.727 0.733 9.38 2.2 2.647 1.467 4.68 3.557 6.1 6.27 1.413 2.72 2.12 5.913 2.12 9.58v0c0 3.667-0.717 6.857-2.15 9.57-1.433 2.72-3.473 4.82-6.12 6.3-2.653 1.487-5.763 2.23-9.33 2.23zM79.7 71.7c2.667 0 4.75-0.943 6.25-2.83 1.5-1.88 2.25-4.62 2.25-8.22v0c0-3.6-0.757-6.333-2.27-8.2-1.52-1.867-3.597-2.8-6.23-2.8v0c-2.667 0-4.75 0.923-6.25 2.77-1.5 1.853-2.25 4.597-2.25 8.23v0c0 3.633 0.75 6.383 2.25 8.25 1.5 1.867 3.583 2.8 6.25 2.8zM117.15 66.85l10.3-23.8h9.3l-16.05 35.25h-7.3l-16.05-35.25h9.55zM171.2 78.3h-9.1l-3.15-7.3h-15.6l-3.15 7.3h-9.25l16.45-35.25h7.3zM151.15 52.8l-4.85 11.3h9.7zM191.5 59.8l16.1 18.5h-10.9l-14.2-15.95v15.95h-9.2v-35.25h9.2v15.15l13.8-15.15h10.75zM217.4 78.3h-9.2v-35.25h9.2zM259.75 78.3h-9.1l-3.15-7.3h-15.6l-3.15 7.3h-9.25l16.45-35.25h7.3zM239.7 52.8l-4.85 11.3h9.7z" fill="#ffc700" fill-rule="nonzero" stroke="none" stroke-width="1" stroke-linecap="butt" stroke-linejoin="miter" stroke-miterlimit="10" stroke-dasharray="" stroke-dashoffset="0" font-family="none" font-weight="none" font-size="none" text-anchor="none" style="mix-blend-mode: normal" data-fill-palette-color="primary" opacity="1"></path></g></svg></g></svg></g></svg></g></svg></g><g transform="matrix(1,0,0,1,0,0.3988822256568625)"><svg viewBox="0 0 89.96667466590553 159.55289026275116" height="159.55289026275116" width="89.96667466590553"><g><svg xmlns="http://www.w3.org/2000/svg" xmlns:xlink="http://www.w3.org/1999/xlink" version="1.1" x="0" y="0" viewBox="24.703994750976562 5.13700008392334 50.59300231933594 89.7249984741211" enable-background="new 0 0 100 100" xml:space="preserve" height="159.55289026275116" width="89.96667466590553" class="icon-icon-0" data-fill-palette-color="accent" id="icon-0"><path fill="#181059" d="M75.293 73.921l0.004-49.42h-8.302V5.137l-39.7 16.961c-1.749 0.906-2.59 1.979-2.59 2.982 0 0-0.001 46.49-0.001 46.503 0 9.225 5.628 16.183 14.325 16.183H59.71v7.096l5.018-5.778 4.788 5.778v-7.096h5.781L75.293 73.921zM30.813 28.53l16.693-7.156v2.666l-16.693 7.156V28.53zM30.813 34.158l16.693-7.156v2.665l-16.693 7.156V34.158zM39.458 85.139c-5.87 0-10.645-4.775-10.645-10.646 0-4.31 2.572-8.168 6.55-9.826 1.082-0.452 29.591-12.969 29.842-13.076l0.002 2.9c0 0-27.721 12.177-28.819 12.635-2.982 1.244-4.91 4.135-4.91 7.367 0 4.399 3.58 7.979 7.979 7.979H59.71v2.667H39.458zM35.211 77.139H59.71v2.664h-0.589H39.865C37.881 79.803 36.151 78.73 35.211 77.139zM72.63 85.139h-3.114v-2.667h3.114V85.139zM72.63 79.803h-3.114v-2.664h3.114V79.803zM72.63 74.426l-38.169 0.002c0-0.011-0.001-0.021-0.001-0.029 0-0.961 0.263-1.856 0.702-2.638H72.63V74.426zM72.63 69.105H38.524l26.989-11.852c0.903-0.389 1.482-1.247 1.482-2.197V27.161h5.635V69.105z" data-fill-palette-color="accent"></path></svg></g></svg></g></svg></g><defs></defs></svg><rect width="395.52" height="123.60478877211386" fill="none" stroke="none" visibility="hidden"></rect></g></svg></g></svg>